<svg width="32" height="32" viewBox="0 0 32 32" fill="none" xmlns="http://www.w3.org/2000/svg">
  <!-- DAWG Favicon - Original, Clear, Recognizable -->
  <defs>
    <!-- Primary gradient -->
    <linearGradient id="faviconPrimaryGradient" x1="0%" y1="0%" x2="100%" y2="100%">
      <stop offset="0%" style="stop-color:#FF6B35;stop-opacity:1" />
      <stop offset="50%" style="stop-color:#FFB627;stop-opacity:1" />
      <stop offset="100%" style="stop-color:#FFD700;stop-opacity:1" />
    </linearGradient>
    
    <!-- Cool accent -->
    <linearGradient id="faviconCoolGradient" x1="0%" y1="0%" x2="100%" y2="100%">
      <stop offset="0%" style="stop-color:#4ECDC4;stop-opacity:1" />
      <stop offset="100%" style="stop-color:#556FB5;stop-opacity:1" />
    </linearGradient>
    
    <!-- Street glow -->
    <filter id="faviconStreetGlow" x="-30%" y="-30%" width="160%" height="160%">
      <feGaussianBlur stdDeviation="1.5" result="coloredBlur"/>
      <feMerge>
        <feMergeNode in="coloredBlur"/>
        <feMergeNode in="SourceGraphic"/>
      </feMerge>
    </filter>
    
    <!-- Shadow -->
    <filter id="faviconStrongShadow" x="-50%" y="-50%" width="200%" height="200%">
      <feGaussianBlur in="SourceAlpha" stdDeviation="2"/>
      <feOffset dx="1.5" dy="2" result="offsetblur"/>
      <feComponentTransfer>
        <feFuncA type="linear" slope="0.35"/>
      </feComponentTransfer>
      <feMerge>
        <feMergeNode/>
        <feMergeNode in="SourceGraphic"/>
      </feMerge>
    </filter>
  </defs>
  
  <!-- Dark background -->
  <rect width="32" height="32" rx="6" fill="#0A0E1A"/>
  <rect x="1" y="1" width="30" height="30" rx="5" fill="#151922" opacity="0.9"/>
  
  <!-- Bold, recognizable "D" -->
  <path d="M 6 5 
           L 6 27
           L 7.5 27
           L 7.5 23
           L 10.5 24
           L 13.5 24
           L 16 23
           L 17 21
           L 17 19
           L 16 17
           L 13.5 16
           L 10.5 15
           L 7.5 14
           L 6 11
           L 6 5
           Z" 
        fill="url(#faviconPrimaryGradient)" 
        opacity="0.98"
        filter="url(#faviconStrongShadow)"/>
  
  <!-- Inner cutout -->
  <path d="M 7.5 9
           L 7.5 23
           L 8.5 23
           L 10 22
           L 11 21
           L 11 20
           L 10 19
           L 8.5 18
           L 7.5 17
           L 7.5 15
           L 8.5 14
           L 10 13
           L 11 12
           L 11 11
           L 10 10
           L 8.5 9
           L 7.5 9
           Z" 
        fill="#0A0E1A" 
        opacity="0.6"/>
  
  <!-- Audio wave - Clear audio identity -->
  <path d="M 19 9
           L 20 7
           L 21 9
           L 22 6
           L 23 9
           L 24 8
           L 25 9" 
        stroke="url(#faviconPrimaryGradient)" 
        stroke-width="2" 
        stroke-linecap="round" 
        stroke-linejoin="round"
        fill="none"
        opacity="0.95"
        filter="url(#faviconStreetGlow)"/>
  
  <path d="M 19 13
           L 20 11
           L 21 13
           L 22 10
           L 23 13
           L 24 12
           L 25 13" 
        stroke="url(#faviconCoolGradient)" 
        stroke-width="1.5" 
        stroke-linecap="round" 
        stroke-linejoin="round"
        fill="none"
        opacity="0.85"
        filter="url(#faviconStreetGlow)"/>
  
  <!-- Accent dot -->
  <circle cx="21" cy="11" r="1.5" fill="#FF6B35" opacity="0.95" filter="url(#faviconStreetGlow)"/>
  
  <!-- Highlight on D -->
  <path d="M 7.5 9
           L 10.5 15
           L 13.5 17
           L 16 19" 
        stroke="url(#faviconCoolGradient)" 
        stroke-width="1.5" 
        stroke-linecap="round" 
        fill="none"
        opacity="0.7"
        filter="url(#faviconStreetGlow)"/>
</svg>
