<svg width="32" height="32" viewBox="0 0 32 32" fill="none" xmlns="http://www.w3.org/2000/svg">
  <!-- DAWG Favicon - Online Ghetto Theme -->
  <defs>
    <!-- Street art gradient -->
    <linearGradient id="faviconGhettoGradient" x1="0%" y1="0%" x2="100%" y2="100%">
      <stop offset="0%" style="stop-color:#FF6B35;stop-opacity:1" />
      <stop offset="50%" style="stop-color:#FFB627;stop-opacity:1" />
      <stop offset="100%" style="stop-color:#FFD700;stop-opacity:1" />
    </linearGradient>
    
    <!-- Cool accent -->
    <linearGradient id="faviconCoolGradient" x1="0%" y1="0%" x2="100%" y2="100%">
      <stop offset="0%" style="stop-color:#4ECDC4;stop-opacity:1" />
      <stop offset="100%" style="stop-color:#556FB5;stop-opacity:1" />
    </linearGradient>
    
    <!-- Street glow -->
    <filter id="faviconStreetGlow" x="-30%" y="-30%" width="160%" height="160%">
      <feGaussianBlur stdDeviation="1.5" result="coloredBlur"/>
      <feMerge>
        <feMergeNode in="coloredBlur"/>
        <feMergeNode in="SourceGraphic"/>
      </feMerge>
    </filter>
    
    <!-- Shadow -->
    <filter id="faviconGhettoShadow" x="-50%" y="-50%" width="200%" height="200%">
      <feGaussianBlur in="SourceAlpha" stdDeviation="2"/>
      <feOffset dx="1" dy="1.5" result="offsetblur"/>
      <feComponentTransfer>
        <feFuncA type="linear" slope="0.3"/>
      </feComponentTransfer>
      <feMerge>
        <feMergeNode/>
        <feMergeNode in="SourceGraphic"/>
      </feMerge>
    </filter>
  </defs>
  
  <!-- Dark urban background -->
  <rect width="32" height="32" rx="5" fill="#0A0E1A"/>
  <rect x="0.5" y="0.5" width="31" height="31" rx="4.5" fill="#151922" opacity="0.8"/>
  
  <!-- Bold graffiti "D" -->
  <path d="M 5 6 
           L 5 26
           L 6.5 26
           L 6.5 22
           L 9 23
           L 11.5 23
           L 14 22
           L 15 20
           L 15 18
           L 14 16
           L 11.5 15
           L 9 14
           L 6.5 13
           L 5 10
           Z" 
        fill="url(#faviconGhettoGradient)" 
        opacity="0.95"
        filter="url(#faviconGhettoShadow)"/>
  
  <!-- Inner cutout -->
  <path d="M 7 10
           L 7 21
           L 8 21
           L 9.5 20
           L 11 19
           L 11 18
           L 9.5 17
           L 8 16
           L 7 15
           Z" 
        fill="#0A0E1A" 
        opacity="0.5"/>
  
  <!-- Graffiti highlight -->
  <path d="M 6.5 10
           L 9 14
           L 11.5 16
           L 14 18
           L 15 20" 
        stroke="url(#faviconCoolGradient)" 
        stroke-width="1.5" 
        stroke-linecap="round" 
        fill="none"
        opacity="0.6"
        filter="url(#faviconStreetGlow)"/>
  
  <!-- Beat wave - Street style -->
  <path d="M 18 10
           L 19 8
           L 20 10
           L 21 7
           L 22 10
           L 23 9
           L 24 10" 
        stroke="url(#faviconGhettoGradient)" 
        stroke-width="2" 
        stroke-linecap="round" 
        stroke-linejoin="round"
        fill="none"
        opacity="0.9"
        filter="url(#faviconStreetGlow)"/>
  
  <path d="M 18 14
           L 19 12
           L 20 14
           L 21 11
           L 22 14
           L 23 13
           L 24 14" 
        stroke="url(#faviconCoolGradient)" 
        stroke-width="1.5" 
        stroke-linecap="round" 
        stroke-linejoin="round"
        fill="none"
        opacity="0.7"
        filter="url(#faviconStreetGlow)"/>
  
  <!-- Street accent dot -->
  <circle cx="20" cy="12" r="1.5" fill="#FF6B35" opacity="0.9" filter="url(#faviconStreetGlow)"/>
</svg>
