<svg width="32" height="32" viewBox="0 0 32 32" fill="none" xmlns="http://www.w3.org/2000/svg">
  <!-- DAWG Favicon - Apple-inspired Minimal Design -->
  <defs>
    <!-- Primary gradient: Cool to Hot -->
    <linearGradient id="faviconGradient" x1="0%" y1="0%" x2="100%" y2="100%">
      <stop offset="0%" style="stop-color:#4ECDC4;stop-opacity:1" />
      <stop offset="50%" style="stop-color:#FFB627;stop-opacity:1" />
      <stop offset="100%" style="stop-color:#FF6B35;stop-opacity:1" />
    </linearGradient>
  </defs>
  
  <!-- Background: Dark rounded square -->
  <rect width="32" height="32" rx="6" fill="#0A0E1A"/>
  
  <!-- Minimal "D" letter -->
  <path d="M 7 8 
           L 7 24
           C 7 8, 7 8, 7 8
           C 7 8, 13 6, 16 8
           C 19 10, 20 12, 20 14
           C 20 16, 19 18, 16 20
           C 13 22, 7 24, 7 24
           Z" 
        fill="url(#faviconGradient)" 
        opacity="0.95"/>
  
  <!-- Negative space for depth -->
  <path d="M 9 11
           C 9 11, 13 10, 15 11
           C 17 12, 18 13, 18 14
           C 18 15, 17 16, 15 17
           C 13 18, 9 19, 9 19
           Z" 
        fill="#0A0E1A" 
        opacity="0.5"/>
  
  <!-- Minimal audio wave accent -->
  <path d="M 22 12
           Q 23 11, 24 12
           Q 25 13, 26 12" 
        stroke="url(#faviconGradient)" 
        stroke-width="1.5" 
        stroke-linecap="round" 
        fill="none"
        opacity="0.6"/>
  
  <path d="M 22 16
           Q 23 15, 24 16
           Q 25 17, 26 16" 
        stroke="url(#faviconGradient)" 
        stroke-width="1.5" 
        stroke-linecap="round" 
        fill="none"
        opacity="0.4"/>
  
  <!-- Accent dot -->
  <circle cx="24" cy="14" r="1" fill="#4ECDC4" opacity="0.8"/>
</svg>
