<svg width="64" height="64" viewBox="0 0 64 64" fill="none" xmlns="http://www.w3.org/2000/svg">
  <!-- DAWG Icon - Online Ghetto Theme -->
  <defs>
    <!-- Street art gradient -->
    <linearGradient id="iconGhettoGradient" x1="0%" y1="0%" x2="100%" y2="100%">
      <stop offset="0%" style="stop-color:#FF6B35;stop-opacity:1" />
      <stop offset="50%" style="stop-color:#FFB627;stop-opacity:1" />
      <stop offset="100%" style="stop-color:#FFD700;stop-opacity:1" />
    </linearGradient>
    
    <!-- Cool accent -->
    <linearGradient id="iconCoolGradient" x1="0%" y1="0%" x2="100%" y2="100%">
      <stop offset="0%" style="stop-color:#4ECDC4;stop-opacity:1" />
      <stop offset="100%" style="stop-color:#556FB5;stop-opacity:1" />
    </linearGradient>
    
    <!-- Street glow -->
    <filter id="iconStreetGlow" x="-30%" y="-30%" width="160%" height="160%">
      <feGaussianBlur stdDeviation="2" result="coloredBlur"/>
      <feMerge>
        <feMergeNode in="coloredBlur"/>
        <feMergeNode in="SourceGraphic"/>
      </feMerge>
    </filter>
    
    <!-- Shadow -->
    <filter id="iconGhettoShadow" x="-50%" y="-50%" width="200%" height="200%">
      <feGaussianBlur in="SourceAlpha" stdDeviation="2.5"/>
      <feOffset dx="1.5" dy="2" result="offsetblur"/>
      <feComponentTransfer>
        <feFuncA type="linear" slope="0.35"/>
      </feComponentTransfer>
      <feMerge>
        <feMergeNode/>
        <feMergeNode in="SourceGraphic"/>
      </feMerge>
    </filter>
  </defs>
  
  <!-- Dark urban background -->
  <rect width="64" height="64" rx="8" fill="#0A0E1A"/>
  <rect x="1" y="1" width="62" height="62" rx="7" fill="#151922" opacity="0.8"/>
  
  <!-- Bold graffiti "D" -->
  <path d="M 10 12 
           L 10 52
           L 13 52
           L 13 45
           L 18 48
           L 23 47
           L 28 45
           L 30 42
           L 30 38
           L 28 35
           L 23 33
           L 18 32
           L 13 30
           L 10 25
           Z" 
        fill="url(#iconGhettoGradient)" 
        opacity="0.95"
        filter="url(#iconGhettoShadow)"/>
  
  <!-- Inner cutout -->
  <path d="M 14 20
           L 14 42
           L 16 41
           L 19 40
           L 22 38
           L 22 36
           L 19 34
           L 16 33
           L 14 32
           Z" 
        fill="#0A0E1A" 
        opacity="0.6"/>
  
  <!-- Graffiti highlight -->
  <path d="M 13 25
           L 18 32
           L 23 35
           L 28 38
           L 30 42" 
        stroke="url(#iconCoolGradient)" 
        stroke-width="2" 
        stroke-linecap="round" 
        fill="none"
        opacity="0.6"
        filter="url(#iconStreetGlow)"/>
  
  <!-- Beat wave - Street style -->
  <path d="M 36 20
           L 38 16
           L 40 20
           L 42 14
           L 44 20
           L 46 18
           L 48 20" 
        stroke="url(#iconGhettoGradient)" 
        stroke-width="2.5" 
        stroke-linecap="round" 
        stroke-linejoin="round"
        fill="none"
        opacity="0.9"
        filter="url(#iconStreetGlow)"/>
  
  <path d="M 36 28
           L 38 24
           L 40 28
           L 42 22
           L 44 28
           L 46 26
           L 48 28" 
        stroke="url(#iconCoolGradient)" 
        stroke-width="2" 
        stroke-linecap="round" 
        stroke-linejoin="round"
        fill="none"
        opacity="0.7"
        filter="url(#iconStreetGlow)"/>
  
  <!-- Street accent dots -->
  <circle cx="40" cy="24" r="2" fill="#FF6B35" opacity="0.9" filter="url(#iconStreetGlow)"/>
  <circle cx="46" cy="24" r="1.5" fill="#4ECDC4" opacity="0.8" filter="url(#iconStreetGlow)"/>
</svg>
