<svg width="32" height="32" viewBox="0 0 32 32" fill="none" xmlns="http://www.w3.org/2000/svg">
  <!-- DAWG Logo - Underground Beatmaking & MC Theme -->
  <defs>
    <linearGradient id="undergroundGradient" x1="0%" y1="0%" x2="100%" y2="100%">
      <stop offset="0%" style="stop-color:#FF6B35;stop-opacity:1" />
      <stop offset="50%" style="stop-color:#F7931E;stop-opacity:1" />
      <stop offset="100%" style="stop-color:#FFD23F;stop-opacity:1" />
    </linearGradient>
    <filter id="glow">
      <feGaussianBlur stdDeviation="1" result="coloredBlur"/>
      <feMerge>
        <feMergeNode in="coloredBlur"/>
        <feMergeNode in="SourceGraphic"/>
      </feMerge>
    </filter>
  </defs>
  
  <!-- Background circle with street art vibe -->
  <circle cx="16" cy="16" r="15" fill="#0A0E1A" opacity="0.8"/>
  <circle cx="16" cy="16" r="14" stroke="url(#undergroundGradient)" stroke-width="1.5" opacity="0.6"/>
  
  <!-- Graffiti-style "D" -->
  <path d="M 6 8 L 6 24 M 6 8 L 12 6 L 18 8 L 18 12 L 12 10 L 6 12 M 6 12 L 12 14 L 18 12 L 18 16 L 12 18 L 6 16 M 6 16 L 12 20 L 18 18 L 18 22 L 12 24 L 6 24" 
        stroke="url(#undergroundGradient)" 
        stroke-width="2.5" 
        stroke-linecap="round" 
        stroke-linejoin="round" 
        fill="none"
        filter="url(#glow)"/>
  
  <!-- Microphone/beat element -->
  <path d="M 22 10 L 24 8 L 26 10 L 24 12 Z" 
        fill="#FF6B35" 
        opacity="0.9"/>
  <circle cx="24" cy="10" r="1" fill="#FFD23F"/>
  
  <!-- Beat wave accent -->
  <path d="M 20 18 Q 22 16 24 18 Q 26 20 28 18" 
        stroke="#F7931E" 
        stroke-width="2" 
        stroke-linecap="round" 
        fill="none"
        opacity="0.8"/>
</svg>
